<svg width="16" height="13" viewBox="0 0 16 13" fill="none" xmlns="http://www.w3.org/2000/svg">
<path d="M16 6.4999C16 6.13559 15.7264 5.83451 15.3714 5.78686L15.2727 5.78029L2.48824 5.78087L7.1069 1.22955C7.39153 0.949126 7.39252 0.493496 7.10911 0.211865C6.85147 -0.0441618 6.44748 -0.0682478 6.16232 0.140172L6.08059 0.209674L0.213928 5.98958C0.17641 6.02655 0.143822 6.06655 0.116164 6.1088C0.108353 6.12151 0.100401 6.13452 0.0928621 6.14779C0.085928 6.15917 0.0796614 6.17098 0.0737505 6.18292C0.0655403 6.2003 0.057518 6.21825 0.0502348 6.23657C0.0443172 6.25069 0.0393763 6.26443 0.0348692 6.27827C0.0295105 6.29544 0.0243044 6.31374 0.0198269 6.33231C0.0164976 6.34528 0.0138607 6.35776 0.0115614 6.37029C0.00832653 6.38894 0.00557423 6.40823 0.00360966 6.42775C0.00191402 6.44264 0.000892639 6.45739 0.000329018 6.47216C0.000183105 6.48111 0 6.49049 0 6.4999L0.000364304 6.52778C0.000921249 6.5419 0.0018959 6.55601 0.00329018 6.57009L0 6.4999C0 6.54531 0.00425053 6.58974 0.0123806 6.63282C0.014266 6.64311 0.0165119 6.65367 0.0190001 6.66419C0.0241661 6.68585 0.0301361 6.70671 0.0370111 6.72716C0.0403852 6.73732 0.0443153 6.74818 0.0485172 6.75896C0.0570154 6.78061 0.0662537 6.80125 0.076416 6.82136C0.0811367 6.83081 0.0864239 6.84071 0.0919609 6.85051C0.101049 6.86649 0.110413 6.88168 0.120313 6.89648C0.127298 6.90696 0.135033 6.91787 0.14311 6.9286L0.149405 6.9369C0.168998 6.96222 0.190254 6.98623 0.213013 7.00875L0.213885 7.00941L6.08055 12.7903C6.36516 13.0707 6.82564 13.0698 7.10907 12.7882C7.36673 12.5322 7.38937 12.1323 7.17753 11.8511L7.10694 11.7705L2.49018 7.22009L15.2727 7.21951C15.6744 7.21951 16 6.89733 16 6.4999Z" fill="black"/>
</svg>
